<svg xmlns="http://www.w3.org/2000/svg" viewBox="0 0 512 512" role="img" aria-labelledby="title desc">
  <title id="title">小小時間偵探月曆 LOGO</title>
  <desc id="desc">一個可愛的微笑月曆圖示，搭配星星與放大鏡。</desc>
  <defs>
    <linearGradient id="bg" x1="80" x2="432" y1="48" y2="464" gradientUnits="userSpaceOnUse">
      <stop offset="0" stop-color="#67e8f9" />
      <stop offset="1" stop-color="#14b8a6" />
    </linearGradient>
    <linearGradient id="page" x1="118" x2="394" y1="137" y2="407" gradientUnits="userSpaceOnUse">
      <stop offset="0" stop-color="#ffffff" />
      <stop offset="1" stop-color="#ecfeff" />
    </linearGradient>
    <filter id="shadow" width="140%" height="140%" x="-20%" y="-15%" color-interpolation-filters="sRGB">
      <feDropShadow dx="0" dy="14" stdDeviation="16" flood-color="#0f172a" flood-opacity="0.18" />
    </filter>
  </defs>

  <rect width="512" height="512" rx="116" fill="url(#bg)" />
  <circle cx="410" cy="112" r="34" fill="#fef3c7" opacity="0.95" />
  <path d="M86 150l12 24 27 4-20 18 5 27-24-13-24 13 5-27-20-18 27-4 12-24z" fill="#fde68a" />
  <path d="M404 330l8 17 19 3-14 13 3 19-16-9-17 9 4-19-14-13 19-3 8-17z" fill="#ffffff" opacity="0.9" />

  <g filter="url(#shadow)">
    <rect x="108" y="104" width="296" height="308" rx="44" fill="#0e7490" />
    <rect x="108" y="168" width="296" height="244" rx="42" fill="url(#page)" />
    <path d="M152 104h208a44 44 0 0 1 44 44v45H108v-45a44 44 0 0 1 44-44z" fill="#0891b2" />
    <rect x="158" y="70" width="36" height="92" rx="18" fill="#334155" />
    <rect x="318" y="70" width="36" height="92" rx="18" fill="#334155" />
    <circle cx="176" cy="142" r="12" fill="#cffafe" />
    <circle cx="336" cy="142" r="12" fill="#cffafe" />

    <rect x="151" y="215" width="56" height="48" rx="14" fill="#d9f99d" />
    <rect x="228" y="215" width="56" height="48" rx="14" fill="#bae6fd" />
    <rect x="305" y="215" width="56" height="48" rx="14" fill="#fde68a" />
    <rect x="151" y="290" width="56" height="48" rx="14" fill="#bae6fd" />
    <rect x="228" y="290" width="56" height="48" rx="14" fill="#fef3c7" />
    <rect x="305" y="290" width="56" height="48" rx="14" fill="#fbcfe8" />

    <circle cx="214" cy="269" r="13" fill="#0f172a" />
    <circle cx="298" cy="269" r="13" fill="#0f172a" />
    <circle cx="209" cy="264" r="4" fill="#ffffff" />
    <circle cx="293" cy="264" r="4" fill="#ffffff" />
    <path d="M224 322c18 24 48 24 66 0" fill="none" stroke="#0f172a" stroke-width="16" stroke-linecap="round" />
    <circle cx="186" cy="303" r="13" fill="#fb7185" opacity="0.62" />
    <circle cx="326" cy="303" r="13" fill="#fb7185" opacity="0.62" />
  </g>

  <g transform="rotate(-18 367 365)">
    <circle cx="360" cy="344" r="42" fill="none" stroke="#f8fafc" stroke-width="22" />
    <circle cx="360" cy="344" r="42" fill="none" stroke="#0f766e" stroke-width="12" />
    <rect x="392" y="382" width="86" height="25" rx="12" fill="#0f766e" />
    <rect x="408" y="385" width="58" height="12" rx="6" fill="#99f6e4" opacity="0.8" />
  </g>
</svg>
